<?xml version="1.0" standalone="no"?>
<!DOCTYPE svg PUBLIC "-//W3C//DTD SVG 20010904//EN"
 "http://www.w3.org/TR/2001/REC-SVG-20010904/DTD/svg10.dtd">
<svg version="1.0" xmlns="http://www.w3.org/2000/svg"
 width="666.000000pt" height="666.000000pt" viewBox="0 0 666.000000 666.000000"
 preserveAspectRatio="xMidYMid meet">
<metadata>
Created by potrace 1.14, written by Peter Selinger 2001-2017
</metadata>
<g transform="translate(0.000000,666.000000) scale(0.100000,-0.100000)"
fill="#000000" stroke="none">
<path d="M3303 4777 c-3 -6 -6 -406 -7 -891 l-1 -881 -27 -57 c-18 -39 -36
-62 -59 -73 -45 -24 -139 -22 -181 2 -42 24 -94 110 -103 171 -6 42 -8 45 -20
28 -8 -10 -100 -106 -205 -213 -170 -172 -190 -196 -179 -211 56 -72 152 -170
205 -208 194 -139 468 -167 719 -74 58 22 133 61 165 87 196 156 276 281 301
471 6 48 9 411 7 967 l-3 890 -303 0 c-177 1 -306 -3 -309 -8z"/>
</g>
</svg>
